<svg id="Layer_1" data-name="Layer 1" xmlns="http://www.w3.org/2000/svg" viewBox="0 0 877.6 223.78"><defs><style>.cls-1{fill:#bf125d;}.cls-2{fill:#1f2337;}</style></defs><title>vellafinance</title><path class="cls-1" d="M66.83,124.44,46.67,70.76H68.08l14.2,44.06L96.36,70.76h20L92,135.26H82.46A16.7,16.7,0,0,1,66.83,124.44Z"/><path class="cls-1" d="M155.84,136.73q-11,0-18.73-3.61A25.47,25.47,0,0,1,125.3,122q-4.1-7.47-4.1-19.09,0-11.38,4-18.85A25.61,25.61,0,0,1,136.87,73q7.59-3.67,18.24-3.67t17.81,3.55A24.08,24.08,0,0,1,184,83.74q3.79,7.34,3.79,19V107H141.52a22.77,22.77,0,0,0,1.47,8.69,11,11,0,0,0,4.53,5.38,15.85,15.85,0,0,0,8.2,1.84,17.91,17.91,0,0,0,5.38-.73A10.69,10.69,0,0,0,165,120a9.55,9.55,0,0,0,2.45-3.37,10.89,10.89,0,0,0,.86-4.41h19.46a24.5,24.5,0,0,1-2.14,10.46,20.23,20.23,0,0,1-6.3,7.71,29.29,29.29,0,0,1-10.1,4.71A51.9,51.9,0,0,1,155.84,136.73Zm-14.2-40.88h25.7a17.63,17.63,0,0,0-.8-5.57,10.41,10.41,0,0,0-2.32-4,9.76,9.76,0,0,0-3.67-2.39,14.23,14.23,0,0,0-5-.8,16.35,16.35,0,0,0-7.34,1.47,10.44,10.44,0,0,0-4.53,4.28A18.48,18.48,0,0,0,141.64,95.85Z"/><path class="cls-1" d="M200,135.26V46.65h20.07v88.61Z"/><path class="cls-1" d="M235.27,135.26V46.65h20.07v88.61Z"/><path class="cls-1" d="M288.51,136.73a39,39,0,0,1-7.89-.79,20.28,20.28,0,0,1-7-2.82,14.29,14.29,0,0,1-5-5.57,19.34,19.34,0,0,1-1.84-8.93q0-7,2.94-11.38a19.55,19.55,0,0,1,8.51-6.92,47,47,0,0,1,13.46-3.49,144.72,144.72,0,0,1,17.69-1v-4a9.27,9.27,0,0,0-1.1-4.71,7.36,7.36,0,0,0-3.24-2.94,13.16,13.16,0,0,0-5.69-1,19,19,0,0,0-5.57.73A7.63,7.63,0,0,0,290.22,86,5,5,0,0,0,289,89.36v1.1H269.41a5.37,5.37,0,0,1-.12-1V88.26a15.09,15.09,0,0,1,3.61-10,23,23,0,0,1,10.34-6.61,57.27,57.27,0,0,1,31.88-.12,22.85,22.85,0,0,1,10.53,6.73q3.86,4.53,3.86,11.87v27.54a4.59,4.59,0,0,0,1.16,3.3,3.8,3.8,0,0,0,2.88,1.22h4.16v12.36a31.1,31.1,0,0,1-4.22,1.41,26.26,26.26,0,0,1-6.91.79,23.09,23.09,0,0,1-7.28-1,13.69,13.69,0,0,1-5.14-2.94,9.68,9.68,0,0,1-2.75-4.47h-.86a27.9,27.9,0,0,1-5.45,4.41,25.06,25.06,0,0,1-7.22,3A38.29,38.29,0,0,1,288.51,136.73ZM296,122.9a16.2,16.2,0,0,0,5.39-.86,12.9,12.9,0,0,0,4.22-2.39,11.18,11.18,0,0,0,2.82-3.73,11.05,11.05,0,0,0,1-4.77v-4.28a63.56,63.56,0,0,0-12,1,18.33,18.33,0,0,0-7.71,3.06,6.39,6.39,0,0,0-2.69,5.26A6.18,6.18,0,0,0,288.2,120a6.41,6.41,0,0,0,3.12,2.2A14.32,14.32,0,0,0,296,122.9Z"/><path class="cls-2" d="M387.76,135.26V85.33h-9.18V70.76h9.18V65.5A24.65,24.65,0,0,1,390,54.3a14.56,14.56,0,0,1,6.79-6.67A25.33,25.33,0,0,1,408,45.43a36.8,36.8,0,0,1,4,.25,39.25,39.25,0,0,1,4.35.73,18.88,18.88,0,0,1,3.49,1.1V60H414q-3.43,0-4.83,1.47A6.34,6.34,0,0,0,407.71,66v4.77h12.12V85.33H407.71v49.93Zm40.14,0V70.76H448v64.5ZM446.57,55A9.07,9.07,0,1,1,437.5,46,9.07,9.07,0,0,1,446.57,55Z"/><path class="cls-2" d="M463.15,135.26V70.76h16.52l1.47,9.18H482a29,29,0,0,1,5.63-5.75,22.39,22.39,0,0,1,7.22-3.67,29.45,29.45,0,0,1,8.57-1.22,24.89,24.89,0,0,1,11.81,2.57,17.17,17.17,0,0,1,7.41,7.71q2.57,5.14,2.57,13.1v42.59H505.13V95.48a13.84,13.84,0,0,0-.67-4.59,9.5,9.5,0,0,0-1.9-3.24,7.1,7.1,0,0,0-3.06-2,13.16,13.16,0,0,0-4.16-.61,11.68,11.68,0,0,0-6.24,1.65,12.3,12.3,0,0,0-4.28,4.41,12.62,12.62,0,0,0-1.59,6.43v37.7Z"/><path class="cls-2" d="M558.13,136.73a39,39,0,0,1-7.89-.79,20.28,20.28,0,0,1-7-2.82,14.29,14.29,0,0,1-5-5.57,19.34,19.34,0,0,1-1.84-8.93q0-7,2.94-11.38a19.55,19.55,0,0,1,8.51-6.92,47,47,0,0,1,13.46-3.49,144.72,144.72,0,0,1,17.69-1v-4A9.27,9.27,0,0,0,578,87.1a7.36,7.36,0,0,0-3.24-2.94,13.16,13.16,0,0,0-5.69-1,19,19,0,0,0-5.57.73A7.63,7.63,0,0,0,559.84,86a5,5,0,0,0-1.22,3.37v1.1H539a5.37,5.37,0,0,1-.12-1V88.26a15.09,15.09,0,0,1,3.61-10,23,23,0,0,1,10.34-6.61,57.27,57.27,0,0,1,31.88-.12,22.85,22.85,0,0,1,10.53,6.73q3.86,4.53,3.86,11.87v27.54a4.59,4.59,0,0,0,1.16,3.3,3.8,3.8,0,0,0,2.88,1.22h4.16v12.36a31.1,31.1,0,0,1-4.22,1.41,26.26,26.26,0,0,1-6.91.79,23.09,23.09,0,0,1-7.28-1,13.69,13.69,0,0,1-5.14-2.94,9.68,9.68,0,0,1-2.75-4.47h-.86a27.9,27.9,0,0,1-5.45,4.41,25.06,25.06,0,0,1-7.22,3A38.29,38.29,0,0,1,558.13,136.73Zm7.46-13.83A16.2,16.2,0,0,0,571,122a12.9,12.9,0,0,0,4.22-2.39,11.18,11.18,0,0,0,2.82-3.73,11.05,11.05,0,0,0,1-4.77v-4.28a63.56,63.56,0,0,0-12,1,18.33,18.33,0,0,0-7.71,3.06,6.39,6.39,0,0,0-2.69,5.26,6.18,6.18,0,0,0,1.16,3.86,6.41,6.41,0,0,0,3.12,2.2A14.32,14.32,0,0,0,565.59,122.9Z"/><path class="cls-2" d="M615.53,135.26V70.76h16.52l1.47,9.18h.86A29,29,0,0,1,640,74.19a22.39,22.39,0,0,1,7.22-3.67,29.45,29.45,0,0,1,8.57-1.22,24.89,24.89,0,0,1,11.81,2.57A17.17,17.17,0,0,1,675,79.57q2.57,5.14,2.57,13.1v42.59H657.51V95.48a13.84,13.84,0,0,0-.67-4.59,9.5,9.5,0,0,0-1.9-3.24,7.1,7.1,0,0,0-3.06-2,13.16,13.16,0,0,0-4.16-.61,11.68,11.68,0,0,0-6.24,1.65,12.3,12.3,0,0,0-4.28,4.41,12.62,12.62,0,0,0-1.59,6.43v37.7Z"/><path class="cls-2" d="M723,136.73q-10.65,0-18.11-3.67a25.32,25.32,0,0,1-11.44-11.2q-4-7.53-4-18.91t4-18.91A25.66,25.66,0,0,1,705,72.84q7.46-3.67,18-3.67a47.92,47.92,0,0,1,12.67,1.59,29.39,29.39,0,0,1,10.16,4.9A21.82,21.82,0,0,1,752.48,84a28.37,28.37,0,0,1,2.33,12H735.1a14.76,14.76,0,0,0-1.41-6.85,9.15,9.15,0,0,0-4.1-4,15,15,0,0,0-6.73-1.35,13.14,13.14,0,0,0-7.53,2,11.25,11.25,0,0,0-4.22,5.75,28.42,28.42,0,0,0-1.35,9.42v4.41a28,28,0,0,0,1.35,9.3,10.58,10.58,0,0,0,4.41,5.69,14.63,14.63,0,0,0,7.83,1.9,16.36,16.36,0,0,0,6.92-1.29,9,9,0,0,0,4.22-4,14.59,14.59,0,0,0,1.47-6.91h18.85a28.13,28.13,0,0,1-2.33,11.81,22,22,0,0,1-6.61,8.38,29.54,29.54,0,0,1-10.16,5A46.89,46.89,0,0,1,723,136.73Z"/><path class="cls-2" d="M799,136.73q-11,0-18.73-3.61A25.47,25.47,0,0,1,768.45,122q-4.1-7.47-4.1-19.09,0-11.38,4-18.85A25.61,25.61,0,0,1,780,73q7.59-3.67,18.24-3.67t17.81,3.55a24.08,24.08,0,0,1,11.08,10.89q3.79,7.34,3.79,19V107H784.67a22.77,22.77,0,0,0,1.47,8.69,11,11,0,0,0,4.53,5.38,15.85,15.85,0,0,0,8.2,1.84,17.91,17.91,0,0,0,5.38-.73,10.69,10.69,0,0,0,3.92-2.14,9.55,9.55,0,0,0,2.45-3.37,10.89,10.89,0,0,0,.86-4.41h19.46a24.5,24.5,0,0,1-2.14,10.46,20.23,20.23,0,0,1-6.3,7.71,29.29,29.29,0,0,1-10.1,4.71A51.9,51.9,0,0,1,799,136.73Zm-14.2-40.88h25.7a17.63,17.63,0,0,0-.8-5.57,10.41,10.41,0,0,0-2.32-4,9.76,9.76,0,0,0-3.67-2.39,14.23,14.23,0,0,0-5-.8,16.35,16.35,0,0,0-7.34,1.47,10.44,10.44,0,0,0-4.53,4.28A18.48,18.48,0,0,0,784.79,95.85Z"/><circle class="cls-1" cx="362.17" cy="125.87" r="10.86"/><path class="cls-1" d="M749.33,178.35a9.56,9.56,0,0,1-4.33-.92,5.93,5.93,0,0,1-2.75-2.77h-.32l-1,3.15H736.4l5.72-32.58h5.5l-2,11.63h.27a8.84,8.84,0,0,1,2-1.85,8.18,8.18,0,0,1,2.41-1.08,10.9,10.9,0,0,1,2.86-.36,8.09,8.09,0,0,1,4.08,1,6.76,6.76,0,0,1,2.7,2.93,10.74,10.74,0,0,1,1,4.82q0,.86-.09,1.85a20.2,20.2,0,0,1-.32,2.12,20.43,20.43,0,0,1-2.28,6.85,10.46,10.46,0,0,1-3.81,3.94A10,10,0,0,1,749.33,178.35ZM748,173.62a6.37,6.37,0,0,0,3.33-.79,5.66,5.66,0,0,0,2.12-2.43,16.85,16.85,0,0,0,1.31-4.17q.18-.86.25-1.46t.11-1.1q0-.5,0-.9a6,6,0,0,0-.45-2.5,3,3,0,0,0-1.44-1.46,5.76,5.76,0,0,0-2.57-.5,5.56,5.56,0,0,0-2.34.5,6,6,0,0,0-1.94,1.44,8.62,8.62,0,0,0-1.46,2.32,13.6,13.6,0,0,0-.92,3.13q-.14.72-.2,1.31t-.09,1c0,.29,0,.56,0,.83a6.78,6.78,0,0,0,.45,2.61,3.23,3.23,0,0,0,1.4,1.62A4.86,4.86,0,0,0,748,173.62Z"/><path class="cls-1" d="M774.3,178.35a15.59,15.59,0,0,1-5.88-1,7,7,0,0,1-3.54-3,10.05,10.05,0,0,1-1.17-5.09,23.76,23.76,0,0,1,.13-2.52q.13-1.26.36-2.43a17.4,17.4,0,0,1,2.1-5.45,11,11,0,0,1,3.94-3.87,12.31,12.31,0,0,1,6.26-1.44,13.23,13.23,0,0,1,5.34.95,6.69,6.69,0,0,1,3.22,2.86,9.76,9.76,0,0,1,1.08,4.85,21.39,21.39,0,0,1-.16,2.41,17.78,17.78,0,0,1-.52,2.68h-16q-.09.54-.13,1c0,.32,0,.62,0,.92a6,6,0,0,0,.52,2.64,3.22,3.22,0,0,0,1.6,1.55,6.75,6.75,0,0,0,2.79.5,7.73,7.73,0,0,0,2-.25,4.77,4.77,0,0,0,1.64-.79,4.7,4.7,0,0,0,1.22-1.37,5.54,5.54,0,0,0,.68-2h5.41a11.59,11.59,0,0,1-1.31,3.92,8.83,8.83,0,0,1-2.39,2.75,10.32,10.32,0,0,1-3.25,1.62A13.47,13.47,0,0,1,774.3,178.35Zm-4.15-14.92h10.32a6.24,6.24,0,0,0,.11-.86q0-.4,0-.72a4.65,4.65,0,0,0-.47-2.25,2.88,2.88,0,0,0-1.37-1.26,5.12,5.12,0,0,0-2.12-.41,6.57,6.57,0,0,0-3,.63,5.65,5.65,0,0,0-2.12,1.85A10.4,10.4,0,0,0,770.15,163.44Z"/><path class="cls-1" d="M795,178.35a5.73,5.73,0,0,1-3-.65,3.68,3.68,0,0,1-1.51-1.71,5.85,5.85,0,0,1-.45-2.32,5.76,5.76,0,0,1,0-.72l.09-.72,2.34-13.61h-2.84l.77-4.51h3l2.16-6.62h4.37l-1.17,6.62h4.1l-.77,4.51H798l-2.21,12.48a4.56,4.56,0,0,0-.11.63c0,.33-.07.53-.07.59a1.48,1.48,0,0,0,.43,1.13,1.81,1.81,0,0,0,1.28.4h2.12l-.68,3.79a8.28,8.28,0,0,1-1.1.34q-.65.16-1.35.27A8.47,8.47,0,0,1,795,178.35Z"/><path class="cls-1" d="M810.3,178.35a8.12,8.12,0,0,1-4.06-1,6.69,6.69,0,0,1-2.73-2.93,10.71,10.71,0,0,1-1-4.82,16,16,0,0,1,.11-1.87q.11-1,.29-2.1a20.71,20.71,0,0,1,2.28-6.87,10.25,10.25,0,0,1,3.81-3.94,10.14,10.14,0,0,1,5-1.26,10.4,10.4,0,0,1,2.82.36,7.11,7.11,0,0,1,2.28,1.08,5.25,5.25,0,0,1,1.58,1.85h.32l1.4-2.75h4.6L826,160q-.32,1.85-.65,3.63t-.61,3.34q-.27,1.55-.5,2.77t-.34,2q-.11.77-.11.95a1.12,1.12,0,0,0,.36.92,1.45,1.45,0,0,0,.95.29h1.49l-.63,3.79a8.16,8.16,0,0,1-1.31.47,7.39,7.39,0,0,1-2,.25,4.44,4.44,0,0,1-2.05-.45,3.22,3.22,0,0,1-1.37-1.35,5.93,5.93,0,0,1-.32-.92,4.33,4.33,0,0,1-.14-1.1h-.32a9.4,9.4,0,0,1-3.54,2.88A10.79,10.79,0,0,1,810.3,178.35Zm2.43-4.73a5.42,5.42,0,0,0,2.3-.5,5.93,5.93,0,0,0,1.94-1.44,9.09,9.09,0,0,0,1.49-2.32,13,13,0,0,0,.95-3.13q.14-.76.2-1.33t.09-1c0-.3,0-.57,0-.81a6.77,6.77,0,0,0-.45-2.64,3.25,3.25,0,0,0-1.4-1.6,4.86,4.86,0,0,0-2.43-.54,6.4,6.4,0,0,0-3.31.79,5.62,5.62,0,0,0-2.14,2.43,16.87,16.87,0,0,0-1.31,4.17c-.09.54-.17,1-.23,1.44s-.11.8-.13,1.13,0,.63,0,.9a4.69,4.69,0,0,0,1.06,3.36A4.54,4.54,0,0,0,812.74,173.62Z"/></svg>