<?xml version="1.0" encoding="utf-8"?>
<!-- Generator: Adobe Illustrator 21.0.0, SVG Export Plug-In . SVG Version: 6.00 Build 0)  -->
<svg version="1.1" id="Layer_1" xmlns="http://www.w3.org/2000/svg" xmlns:xlink="http://www.w3.org/1999/xlink" x="0px" y="0px"
	 viewBox="0 0 877.6 223.8" style="enable-background:new 0 0 877.6 223.8;" xml:space="preserve">
<style type="text/css">
	.st0{fill:#BF125D;}
	.st1{opacity:0.2;}
	.st2{fill:#FFFFFF;}
	.st3{fill:#1F2337;}
	.st4{fill:#CF4D85;}
	.st5{fill:#DF89AE;}
	.st6{fill:#EFC4D7;}
	.st7{fill:#FFA200;}
	.st8{fill:#FFB533;}
	.st9{fill:#FFC766;}
	.st10{fill:#FFDA99;}
	.st11{fill:#FFECCC;}
	.st12{fill:#D46193;}
	.st13{fill:#EAB0C9;}
	.st14{fill:#212337;}
	.st15{fill:#222338;}
	.st16{fill:#242238;}
	.st17{fill:#262239;}
	.st18{fill:#272239;}
	.st19{fill:#292239;}
	.st20{fill:#2A223A;}
	.st21{fill:#2C223A;}
	.st22{fill:#2E213A;}
	.st23{fill:#2F213B;}
	.st24{fill:#31213B;}
	.st25{fill:#33213C;}
	.st26{fill:#34213C;}
	.st27{fill:#36213C;}
	.st28{fill:#37203D;}
	.st29{fill:#39203D;}
	.st30{fill:#3B203E;}
	.st31{fill:#3C203E;}
	.st32{fill:#3E203E;}
	.st33{fill:#40203F;}
	.st34{fill:#411F3F;}
	.st35{fill:#431F40;}
	.st36{fill:#451F40;}
	.st37{fill:#461F40;}
	.st38{fill:#481F41;}
	.st39{fill:#491E41;}
	.st40{fill:#4B1E41;}
	.st41{fill:#4D1E42;}
	.st42{fill:#4E1E42;}
	.st43{fill:#501E43;}
	.st44{fill:#521E43;}
	.st45{fill:#531D43;}
	.st46{fill:#551D44;}
	.st47{fill:#571D44;}
	.st48{fill:#581D45;}
	.st49{fill:#5A1D45;}
	.st50{fill:#5B1D45;}
	.st51{fill:#5D1C46;}
	.st52{fill:#5F1C46;}
	.st53{fill:#601C47;}
	.st54{fill:#621C47;}
	.st55{fill:#641C47;}
	.st56{fill:#651C48;}
	.st57{fill:#671B48;}
	.st58{fill:#681B48;}
	.st59{fill:#6A1B49;}
	.st60{fill:#6C1B49;}
	.st61{fill:#6D1B4A;}
	.st62{fill:#6F1A4A;}
	.st63{fill:#711A4A;}
	.st64{fill:#721A4B;}
	.st65{fill:#741A4B;}
	.st66{fill:#761A4C;}
	.st67{fill:#771A4C;}
	.st68{fill:#79194C;}
	.st69{fill:#7A194D;}
	.st70{fill:#7C194D;}
	.st71{fill:#7E194D;}
	.st72{fill:#7F194E;}
	.st73{fill:#81194E;}
	.st74{fill:#83184F;}
	.st75{fill:#84184F;}
	.st76{fill:#86184F;}
	.st77{fill:#871850;}
	.st78{fill:#891850;}
	.st79{fill:#8B1851;}
	.st80{fill:#8C1751;}
	.st81{fill:#8E1751;}
	.st82{fill:#901752;}
	.st83{fill:#911752;}
	.st84{fill:#931753;}
	.st85{fill:#951753;}
	.st86{fill:#961653;}
	.st87{fill:#981654;}
	.st88{fill:#991654;}
	.st89{fill:#9B1654;}
	.st90{fill:#9D1655;}
	.st91{fill:#9E1555;}
	.st92{fill:#A01556;}
	.st93{fill:#A21556;}
	.st94{fill:#A31556;}
	.st95{fill:#A51557;}
	.st96{fill:#A71557;}
	.st97{fill:#A81458;}
	.st98{fill:#AA1458;}
	.st99{fill:#AB1458;}
	.st100{fill:#AD1459;}
	.st101{fill:#AF1459;}
	.st102{fill:#B0145A;}
	.st103{fill:#B2135A;}
	.st104{fill:#B4135A;}
	.st105{fill:#B5135B;}
	.st106{fill:#B7135B;}
	.st107{fill:#B8135B;}
	.st108{fill:#BA135C;}
	.st109{fill:#BC125C;}
	.st110{fill:#BD125D;}
	.st111{fill:url(#SVGID_1_);}
	.st112{fill:url(#SVGID_2_);}
	.st113{opacity:0.2;clip-path:url(#SVGID_4_);}
</style>
<g>
	<g>
		<g>
			<path class="st0" d="M66.8,124.4L46.7,70.8h21.4l14.2,44.1l14.1-44.1h20L92,135.3h-9.5C75.5,135.3,69.3,130.9,66.8,124.4z"/>
		</g>
		<g>
			<path class="st0" d="M155.8,136.7c-7.3,0-13.6-1.2-18.7-3.6c-5.1-2.4-9.1-6.1-11.8-11.1c-2.7-5-4.1-11.3-4.1-19.1
				c0-7.6,1.3-13.9,4-18.8c2.7-5,6.6-8.7,11.6-11.1c5.1-2.4,11.1-3.7,18.2-3.7c7,0,13,1.2,17.8,3.5c4.9,2.4,8.5,6,11.1,10.9
				c2.5,4.9,3.8,11.2,3.8,19v4.3h-46.3c0,3.4,0.5,6.3,1.5,8.7c1,2.4,2.5,4.2,4.5,5.4c2,1.2,4.8,1.8,8.2,1.8c2,0,3.8-0.2,5.4-0.7
				c1.5-0.5,2.9-1.2,3.9-2.1c1.1-0.9,1.9-2.1,2.4-3.4c0.6-1.3,0.9-2.8,0.9-4.4h19.5c0,3.9-0.7,7.4-2.1,10.5
				c-1.4,3.1-3.5,5.6-6.3,7.7c-2.8,2.1-6.1,3.7-10.1,4.7C165.3,136.2,160.8,136.7,155.8,136.7z M141.6,95.9h25.7
				c0-2.1-0.3-4-0.8-5.6c-0.5-1.6-1.3-2.9-2.3-4c-1-1.1-2.2-1.9-3.7-2.4c-1.4-0.5-3.1-0.8-5-0.8c-2.9,0-5.4,0.5-7.3,1.5
				c-2,1-3.5,2.4-4.5,4.3C142.7,90.8,142,93.1,141.6,95.9z"/>
		</g>
		<g>
			<path class="st0" d="M200,135.3V46.7h20.1v88.6H200z"/>
		</g>
		<g>
			<path class="st0" d="M235.3,135.3V46.7h20.1v88.6H235.3z"/>
		</g>
		<g>
			<path class="st0" d="M288.5,136.7c-2.7,0-5.3-0.3-7.9-0.8c-2.6-0.5-4.9-1.5-7-2.8c-2.1-1.3-3.7-3.2-5-5.6
				c-1.2-2.4-1.8-5.3-1.8-8.9c0-4.7,1-8.4,2.9-11.4c2-2.9,4.8-5.2,8.5-6.9c3.7-1.7,8.2-2.8,13.5-3.5c5.3-0.7,11.2-1,17.7-1v-4
				c0-1.9-0.4-3.4-1.1-4.7c-0.7-1.3-1.8-2.2-3.2-2.9c-1.4-0.7-3.3-1-5.7-1c-2.1,0-4,0.2-5.6,0.7c-1.6,0.5-2.8,1.2-3.6,2.1
				c-0.8,0.9-1.2,2.1-1.2,3.4v1.1h-19.6c-0.1-0.4-0.1-0.8-0.1-1c0-0.3,0-0.7,0-1.2c0-3.8,1.2-7.2,3.6-10c2.4-2.9,5.9-5.1,10.3-6.6
				c4.5-1.5,9.9-2.3,16.3-2.3c6,0,11.2,0.7,15.6,2.2c4.4,1.5,8,3.7,10.5,6.7c2.6,3,3.9,7,3.9,11.9v27.5c0,1.4,0.4,2.5,1.2,3.3
				c0.8,0.8,1.7,1.2,2.9,1.2h4.2v12.4c-0.9,0.4-2.3,0.9-4.2,1.4c-1.9,0.5-4.2,0.8-6.9,0.8c-2.8,0-5.2-0.3-7.3-1
				c-2.1-0.7-3.8-1.7-5.1-2.9c-1.3-1.3-2.3-2.8-2.8-4.5h-0.9c-1.6,1.6-3.4,3.1-5.4,4.4c-2.1,1.3-4.5,2.3-7.2,3
				C295.1,136.4,292,136.7,288.5,136.7z M296,122.9c2,0,3.8-0.3,5.4-0.9c1.6-0.6,3-1.4,4.2-2.4c1.2-1,2.1-2.3,2.8-3.7
				c0.7-1.5,1-3.1,1-4.8v-4.3c-4.7,0-8.6,0.3-12,1c-3.3,0.7-5.9,1.7-7.7,3.1c-1.8,1.4-2.7,3.1-2.7,5.3c0,1.6,0.4,2.8,1.2,3.9
				c0.8,1,1.8,1.8,3.1,2.2C292.6,122.7,294.2,122.9,296,122.9z"/>
		</g>
		<g>
			<path class="st2" d="M387.8,135.3V85.3h-9.2V70.8h9.2v-5.3c0-4.5,0.8-8.2,2.3-11.2c1.5-3,3.8-5.2,6.8-6.7c3-1.5,6.7-2.2,11.1-2.2
				c1.2,0,2.6,0.1,4,0.2c1.5,0.2,2.9,0.4,4.3,0.7c1.4,0.3,2.6,0.7,3.5,1.1V60H414c-2.3,0-3.9,0.5-4.8,1.5c-0.9,1-1.4,2.5-1.4,4.5
				v4.8h12.1v14.6h-12.1v49.9H387.8z M427.9,135.3V70.8H448v64.5H427.9z M446.6,55c0,5-4.1,9.1-9.1,9.1s-9.1-4.1-9.1-9.1
				s4.1-9.1,9.1-9.1S446.6,50,446.6,55z"/>
		</g>
		<g>
			<path class="st2" d="M463.2,135.3V70.8h16.5l1.5,9.2h0.9c1.6-2.2,3.5-4.1,5.6-5.8c2.1-1.6,4.5-2.9,7.2-3.7
				c2.7-0.8,5.5-1.2,8.6-1.2c4.7,0,8.6,0.9,11.8,2.6c3.2,1.7,5.7,4.3,7.4,7.7c1.7,3.4,2.6,7.8,2.6,13.1v42.6h-20.1V95.5
				c0-1.8-0.2-3.3-0.7-4.6c-0.4-1.3-1.1-2.3-1.9-3.2c-0.8-0.9-1.8-1.5-3.1-2c-1.2-0.4-2.6-0.6-4.2-0.6c-2.4,0-4.4,0.6-6.2,1.7
				c-1.8,1.1-3.2,2.6-4.3,4.4c-1.1,1.8-1.6,4-1.6,6.4v37.7H463.2z"/>
		</g>
		<g>
			<path class="st2" d="M558.1,136.7c-2.7,0-5.3-0.3-7.9-0.8c-2.6-0.5-4.9-1.5-7-2.8c-2.1-1.3-3.7-3.2-5-5.6
				c-1.2-2.4-1.8-5.3-1.8-8.9c0-4.7,1-8.4,2.9-11.4c2-2.9,4.8-5.2,8.5-6.9c3.7-1.7,8.2-2.8,13.5-3.5c5.3-0.7,11.2-1,17.7-1v-4
				c0-1.9-0.4-3.4-1.1-4.7c-0.7-1.3-1.8-2.2-3.2-2.9c-1.4-0.7-3.3-1-5.7-1c-2.1,0-4,0.2-5.6,0.7c-1.6,0.5-2.8,1.2-3.6,2.1
				c-0.8,0.9-1.2,2.1-1.2,3.4v1.1H539c-0.1-0.4-0.1-0.8-0.1-1c0-0.3,0-0.7,0-1.2c0-3.8,1.2-7.2,3.6-10c2.4-2.9,5.9-5.1,10.3-6.6
				c4.5-1.5,9.9-2.3,16.3-2.3c6,0,11.2,0.7,15.6,2.2c4.4,1.5,8,3.7,10.5,6.7c2.6,3,3.9,7,3.9,11.9v27.5c0,1.4,0.4,2.5,1.2,3.3
				c0.8,0.8,1.7,1.2,2.9,1.2h4.2v12.4c-0.9,0.4-2.3,0.9-4.2,1.4c-1.9,0.5-4.2,0.8-6.9,0.8c-2.8,0-5.2-0.3-7.3-1
				c-2.1-0.7-3.8-1.7-5.1-2.9c-1.3-1.3-2.3-2.8-2.8-4.5h-0.9c-1.6,1.6-3.4,3.1-5.4,4.4c-2.1,1.3-4.5,2.3-7.2,3
				C564.8,136.4,561.6,136.7,558.1,136.7z M565.6,122.9c2,0,3.8-0.3,5.4-0.9c1.6-0.6,3-1.4,4.2-2.4c1.2-1,2.1-2.3,2.8-3.7
				c0.7-1.5,1-3.1,1-4.8v-4.3c-4.7,0-8.6,0.3-12,1c-3.3,0.7-5.9,1.7-7.7,3.1c-1.8,1.4-2.7,3.1-2.7,5.3c0,1.6,0.4,2.8,1.2,3.9
				c0.8,1,1.8,1.8,3.1,2.2C562.2,122.7,563.8,122.9,565.6,122.9z"/>
		</g>
		<g>
			<path class="st2" d="M615.5,135.3V70.8h16.5l1.5,9.2h0.9c1.6-2.2,3.5-4.1,5.6-5.8c2.1-1.6,4.5-2.9,7.2-3.7
				c2.7-0.8,5.5-1.2,8.6-1.2c4.7,0,8.6,0.9,11.8,2.6c3.2,1.7,5.7,4.3,7.4,7.7c1.7,3.4,2.6,7.8,2.6,13.1v42.6h-20.1V95.5
				c0-1.8-0.2-3.3-0.7-4.6c-0.4-1.3-1.1-2.3-1.9-3.2c-0.8-0.9-1.8-1.5-3.1-2c-1.2-0.4-2.6-0.6-4.2-0.6c-2.4,0-4.4,0.6-6.2,1.7
				c-1.8,1.1-3.2,2.6-4.3,4.4c-1.1,1.8-1.6,4-1.6,6.4v37.7H615.5z"/>
		</g>
		<g>
			<path class="st2" d="M723,136.7c-7.1,0-13.1-1.2-18.1-3.7c-5-2.4-8.8-6.2-11.4-11.2c-2.7-5-4-11.3-4-18.9s1.3-13.9,4-18.9
				c2.7-5,6.5-8.8,11.5-11.2c5-2.4,11-3.7,18-3.7c4.6,0,8.8,0.5,12.7,1.6c3.9,1.1,7.3,2.7,10.2,4.9c2.9,2.2,5.1,5,6.7,8.3
				c1.5,3.3,2.3,7.3,2.3,12h-19.7c0-2.8-0.5-5.1-1.4-6.9c-0.9-1.8-2.3-3.1-4.1-4c-1.8-0.9-4-1.3-6.7-1.3c-3.1,0-5.6,0.7-7.5,2
				c-1.9,1.3-3.3,3.2-4.2,5.8c-0.9,2.5-1.3,5.7-1.3,9.4v4.4c0,3.7,0.4,6.8,1.3,9.3c0.9,2.5,2.4,4.4,4.4,5.7c2,1.3,4.7,1.9,7.8,1.9
				c2.8,0,5.1-0.4,6.9-1.3c1.8-0.9,3.2-2.2,4.2-4c1-1.8,1.5-4.1,1.5-6.9h18.8c0,4.5-0.8,8.4-2.3,11.8c-1.6,3.4-3.8,6.2-6.6,8.4
				c-2.9,2.2-6.2,3.9-10.2,5C731.8,136.2,727.6,136.7,723,136.7z"/>
		</g>
		<g>
			<path class="st2" d="M799,136.7c-7.3,0-13.6-1.2-18.7-3.6c-5.1-2.4-9.1-6.1-11.8-11.1c-2.7-5-4.1-11.3-4.1-19.1
				c0-7.6,1.3-13.9,4-18.8c2.7-5,6.6-8.7,11.6-11.1c5.1-2.4,11.1-3.7,18.2-3.7c7,0,13,1.2,17.8,3.5c4.9,2.4,8.5,6,11.1,10.9
				c2.5,4.9,3.8,11.2,3.8,19v4.3h-46.3c0,3.4,0.5,6.3,1.5,8.7c1,2.4,2.5,4.2,4.5,5.4c2,1.2,4.8,1.8,8.2,1.8c2,0,3.8-0.2,5.4-0.7
				c1.5-0.5,2.9-1.2,3.9-2.1c1.1-0.9,1.9-2.1,2.4-3.4c0.6-1.3,0.9-2.8,0.9-4.4h19.5c0,3.9-0.7,7.4-2.1,10.5
				c-1.4,3.1-3.5,5.6-6.3,7.7c-2.8,2.1-6.1,3.7-10.1,4.7C808.4,136.2,804,136.7,799,136.7z M784.8,95.9h25.7c0-2.1-0.3-4-0.8-5.6
				c-0.5-1.6-1.3-2.9-2.3-4c-1-1.1-2.2-1.9-3.7-2.4c-1.4-0.5-3.1-0.8-5-0.8c-2.9,0-5.4,0.5-7.3,1.5c-2,1-3.5,2.4-4.5,4.3
				C785.8,90.8,785.1,93.1,784.8,95.9z"/>
		</g>
		<g>
			<circle class="st0" cx="362.2" cy="125.9" r="10.9"/>
		</g>
	</g>
	<g>
		<path class="st0" d="M749.3,178.4c-1.7,0-3.1-0.3-4.3-0.9c-1.2-0.6-2.1-1.5-2.7-2.8h-0.3l-1,3.2h-4.6l5.7-32.6h5.5l-2,11.6h0.3
			c0.6-0.8,1.3-1.4,2-1.8c0.7-0.5,1.5-0.8,2.4-1.1s1.8-0.4,2.9-0.4c1.6,0,2.9,0.3,4.1,1c1.2,0.7,2.1,1.6,2.7,2.9
			c0.6,1.3,1,2.9,1,4.8c0,0.6,0,1.2-0.1,1.8c-0.1,0.7-0.2,1.4-0.3,2.1c-0.5,2.8-1.2,5.1-2.3,6.8s-2.3,3.1-3.8,3.9
			C752.9,177.9,751.2,178.4,749.3,178.4z M748,173.6c1.4,0,2.5-0.3,3.3-0.8c0.9-0.5,1.6-1.3,2.1-2.4s1-2.5,1.3-4.2
			c0.1-0.6,0.2-1.1,0.2-1.5c0-0.4,0.1-0.8,0.1-1.1c0-0.3,0-0.6,0-0.9c0-1-0.2-1.9-0.5-2.5c-0.3-0.6-0.8-1.1-1.4-1.5
			c-0.7-0.3-1.5-0.5-2.6-0.5c-0.8,0-1.6,0.2-2.3,0.5c-0.7,0.3-1.4,0.8-1.9,1.4c-0.6,0.6-1.1,1.4-1.5,2.3c-0.4,0.9-0.7,2-0.9,3.1
			c-0.1,0.5-0.2,0.9-0.2,1.3s-0.1,0.7-0.1,1c0,0.3,0,0.6,0,0.8c0,1,0.2,1.9,0.5,2.6c0.3,0.7,0.8,1.3,1.4,1.6
			C746.2,173.4,747,173.6,748,173.6z"/>
		<path class="st0" d="M774.3,178.4c-2.3,0-4.3-0.3-5.9-1c-1.6-0.6-2.8-1.6-3.5-3c-0.8-1.4-1.2-3-1.2-5.1c0-0.8,0-1.7,0.1-2.5
			c0.1-0.8,0.2-1.7,0.4-2.4c0.4-2,1.1-3.8,2.1-5.5c1-1.6,2.3-2.9,3.9-3.9c1.7-1,3.7-1.4,6.3-1.4c2.1,0,3.9,0.3,5.3,0.9
			c1.4,0.6,2.5,1.6,3.2,2.9c0.7,1.3,1.1,2.9,1.1,4.8c0,0.7-0.1,1.5-0.2,2.4c-0.1,0.9-0.3,1.8-0.5,2.7h-16c-0.1,0.4-0.1,0.7-0.1,1
			s0,0.6,0,0.9c0,1.1,0.2,1.9,0.5,2.6c0.3,0.7,0.9,1.2,1.6,1.6c0.7,0.3,1.7,0.5,2.8,0.5c0.7,0,1.4-0.1,2-0.2
			c0.6-0.2,1.2-0.4,1.6-0.8s0.9-0.8,1.2-1.4c0.3-0.6,0.6-1.2,0.7-2h5.4c-0.2,1.5-0.7,2.8-1.3,3.9s-1.4,2-2.4,2.7
			c-1,0.7-2,1.3-3.2,1.6C777,178.2,775.7,178.4,774.3,178.4z M770.2,163.4h10.3c0.1-0.3,0.1-0.6,0.1-0.9c0-0.3,0-0.5,0-0.7
			c0-0.9-0.2-1.7-0.5-2.3c-0.3-0.6-0.8-1-1.4-1.3c-0.6-0.3-1.3-0.4-2.1-0.4c-1.1,0-2.1,0.2-3,0.6s-1.5,1-2.1,1.8
			C771,161.2,770.5,162.2,770.2,163.4z"/>
		<path class="st0" d="M795,178.4c-1.3,0-2.3-0.2-3-0.7c-0.7-0.4-1.2-1-1.5-1.7c-0.3-0.7-0.5-1.5-0.5-2.3c0-0.2,0-0.5,0-0.7
			c0-0.2,0.1-0.5,0.1-0.7l2.3-13.6h-2.8l0.8-4.5h3l2.2-6.6h4.4l-1.2,6.6h4.1l-0.8,4.5H798l-2.2,12.5c0,0.1-0.1,0.3-0.1,0.6
			c0,0.3-0.1,0.5-0.1,0.6c0,0.5,0.1,0.9,0.4,1.1c0.3,0.3,0.7,0.4,1.3,0.4h2.1l-0.7,3.8c-0.3,0.1-0.7,0.2-1.1,0.3s-0.9,0.2-1.4,0.3
			C795.8,178.3,795.4,178.4,795,178.4z"/>
		<path class="st0" d="M810.3,178.4c-1.5,0-2.9-0.3-4.1-1c-1.2-0.7-2.1-1.6-2.7-2.9c-0.6-1.3-1-2.9-1-4.8c0-0.6,0-1.2,0.1-1.9
			c0.1-0.6,0.2-1.3,0.3-2.1c0.5-2.8,1.2-5.1,2.3-6.9c1-1.8,2.3-3.1,3.8-3.9c1.5-0.8,3.2-1.3,5-1.3c1,0,2,0.1,2.8,0.4
			c0.9,0.2,1.6,0.6,2.3,1.1c0.7,0.5,1.2,1.1,1.6,1.8h0.3l1.4-2.7h4.6L826,160c-0.2,1.2-0.4,2.4-0.7,3.6c-0.2,1.2-0.4,2.3-0.6,3.3
			c-0.2,1-0.3,2-0.5,2.8c-0.2,0.8-0.3,1.5-0.3,2c-0.1,0.5-0.1,0.8-0.1,0.9c0,0.4,0.1,0.7,0.4,0.9s0.6,0.3,0.9,0.3h1.5l-0.6,3.8
			c-0.3,0.2-0.7,0.3-1.3,0.5c-0.6,0.2-1.2,0.2-2,0.2c-0.8,0-1.5-0.2-2.1-0.5s-1-0.8-1.4-1.4c-0.1-0.3-0.2-0.6-0.3-0.9
			c-0.1-0.3-0.1-0.7-0.1-1.1h-0.3c-1,1.3-2.2,2.3-3.5,2.9C813.5,178,812,178.4,810.3,178.4z M812.7,173.6c0.8,0,1.6-0.2,2.3-0.5
			c0.7-0.3,1.4-0.8,1.9-1.4c0.6-0.6,1.1-1.4,1.5-2.3c0.4-0.9,0.7-2,0.9-3.1c0.1-0.5,0.2-1,0.2-1.3c0-0.4,0.1-0.7,0.1-1
			c0-0.3,0-0.6,0-0.8c0-1.1-0.2-1.9-0.5-2.6c-0.3-0.7-0.8-1.2-1.4-1.6c-0.6-0.4-1.4-0.5-2.4-0.5c-1.3,0-2.4,0.3-3.3,0.8
			c-0.9,0.5-1.6,1.3-2.1,2.4c-0.5,1.1-1,2.5-1.3,4.2c-0.1,0.5-0.2,1-0.2,1.4c-0.1,0.4-0.1,0.8-0.1,1.1c0,0.3,0,0.6,0,0.9
			c0,1.5,0.4,2.6,1.1,3.4C810,173.3,811.2,173.6,812.7,173.6z"/>
	</g>
</g>
</svg>
