<svg width="60" height="38" viewBox="0 0 60 38" fill="none" xmlns="http://www.w3.org/2000/svg">
<path d="M59.2002 2.60001V12.2H0.700195V2.60001C0.700195 1.60001 1.5002 0.700012 2.6002 0.700012H57.4002C58.4002 0.800012 59.2002 1.60001 59.2002 2.60001Z" fill="#DF89AE"/>
<path d="M0.700195 14.4V36.1C0.700195 37.1 1.5002 38 2.6002 38H57.4002C58.4002 38 59.3002 37.2 59.3002 36.1V14.4H0.700195ZM17.3002 25.3C17.3002 26.5 16.4002 27.4 15.2002 27.4H8.90019C7.70019 27.4 6.8002 26.4 6.8002 25.3V21.4C6.8002 20.2 7.80019 19.3 8.90019 19.3H15.2002C16.4002 19.3 17.3002 20.3 17.3002 21.4V25.3Z" fill="#BF125D"/>
</svg>
