<svg width="59" height="38" viewBox="0 0 59 38" fill="none" xmlns="http://www.w3.org/2000/svg">
<path d="M22 11.4C22.4 11.5 22.7 11.8 23 12.1L31 9.99998L30.7 12.3H58.6V2.7C58.6 1.7 57.8 0.799988 56.7 0.799988H22V11.4Z" fill="#DF89AE"/>
<path d="M11.1001 12.3L10.6001 10.1L19.1001 12.1C19.3001 11.9 19.6001 11.7 19.8001 11.5V0.799988H2.0001C1.0001 0.799988 0.100098 1.6 0.100098 2.7V12.3H11.1001Z" fill="#DF89AE"/>
<path d="M30.4 14.4L30 17.4L23.5 14.9C23.3 15.3 23 15.7 22.6 16L27 27.9H25.3L22 18.3V38H56.7C57.7 38 58.6 37.2 58.6 36.1V14.4H30.4Z" fill="#BF125D"/>
<path d="M19.8001 18.6L16.4001 28.2H14.4001L19.4001 15.9C19.1001 15.6 18.8001 15.3 18.7001 14.9L12.3001 17.4L11.7001 14.4H0.100098V36.1C0.100098 37.1 0.900099 38 2.0001 38H19.9001V18.6H19.8001Z" fill="#BF125D"/>
</svg>
