<svg width="142" height="42" viewBox="0 0 142 42" fill="none" xmlns="http://www.w3.org/2000/svg">
<path d="M140.5 37C140.5 38.0609 140.079 39.0783 139.328 39.8284C138.578 40.5786 137.561 41 136.5 41H5C3.93913 41 2.92172 40.5786 2.17157 39.8284C1.42143 39.0783 1 38.0609 1 37V5C1 3.93913 1.42143 2.92172 2.17157 2.17157C2.92172 1.42143 3.93913 1 5 1H136.48C137.541 1 138.558 1.42143 139.308 2.17157C140.059 2.92172 140.48 3.93913 140.48 5V37H140.5Z" fill="#B41A59"/>
<g opacity="0.18">
<path opacity="0.18" d="M136.48 1C137.541 1 138.558 1.42143 139.308 2.17157C140.059 2.92172 140.48 3.93913 140.48 5V37C140.48 38.0609 140.059 39.0783 139.308 39.8284C138.558 40.5786 137.541 41 136.48 41H5C3.93913 41 2.92172 40.5786 2.17157 39.8284C1.42143 39.0783 1 38.0609 1 37V5C1 3.93913 1.42143 2.92172 2.17157 2.17157C2.92172 1.42143 3.93913 1 5 1H136.48ZM136.48 0H5C3.67392 0 2.40215 0.526784 1.46447 1.46447C0.526784 2.40215 0 3.67392 0 5L0 37C0 38.3261 0.526784 39.5979 1.46447 40.5355C2.40215 41.4732 3.67392 42 5 42H136.48C137.806 42 139.078 41.4732 140.016 40.5355C140.953 39.5979 141.48 38.3261 141.48 37V5C141.48 3.67392 140.953 2.40215 140.016 1.46447C139.078 0.526784 137.806 0 136.48 0V0Z" fill="white"/>
</g>
<path d="M32.64 21.39C32.6503 20.3853 32.9153 19.3995 33.4103 18.5251C33.9052 17.6506 34.6139 16.916 35.47 16.39C34.9279 15.6157 34.2127 14.9784 33.3812 14.5288C32.5497 14.0792 31.6248 13.8297 30.68 13.8C28.68 13.59 26.68 15.01 25.68 15.01C24.68 15.01 23.05 13.82 21.35 13.86C20.2512 13.8994 19.1812 14.2221 18.2439 14.7968C17.3065 15.3714 16.5335 16.1786 16 17.14C13.68 21.14 15.41 27.06 17.63 30.31C18.74 31.9 20.04 33.68 21.75 33.61C23.46 33.54 24 32.56 26 32.56C28 32.56 28.58 33.62 30.31 33.56C32.04 33.5 33.22 31.96 34.31 30.36C35.1087 29.2272 35.723 27.975 36.13 26.65C35.0937 26.2093 34.2095 25.4741 33.5873 24.5354C32.9651 23.5968 32.6323 22.4961 32.63 21.37L32.64 21.39ZM29.36 11.68C30.3357 10.5114 30.8165 9.00794 30.7 7.49001C29.2121 7.65312 27.8389 8.36646 26.85 9.49001C25.8844 10.5909 25.3921 12.0283 25.48 13.49C26.2254 13.4981 26.9629 13.3366 27.6368 13.0178C28.3107 12.6991 28.9034 12.2314 29.37 11.65L29.36 11.68Z" fill="white"/>
<path d="M56.76 32.21H54.43L53.16 28.21H48.73L47.52 32.21H45.25L49.64 18.58H52.35L56.76 32.21ZM52.76 26.53L51.62 23C51.5 22.6333 51.27 21.7767 50.93 20.43C50.7967 21.01 50.58 21.8667 50.28 23L49.15 26.56L52.76 26.53ZM68 27.17C68.0896 28.6302 67.601 30.067 66.64 31.17C66.2588 31.5839 65.7946 31.9128 65.2776 32.1351C64.7607 32.3574 64.2027 32.4681 63.64 32.46C63.0821 32.5029 62.5232 32.389 62.0267 32.131C61.5301 31.873 61.1156 31.4812 60.83 31V36.2H58.64V25.61C58.64 24.5567 58.6133 23.48 58.56 22.38H60.48L60.6 23.94C60.9311 23.4336 61.3758 23.0114 61.8988 22.707C62.4217 22.4027 63.0084 22.2244 63.6123 22.1866C64.2162 22.1487 64.8205 22.2522 65.3774 22.4889C65.9342 22.7256 66.4282 23.0889 66.82 23.55C67.6366 24.5751 68.0556 25.8606 68 27.17ZM65.77 27.25C65.804 26.4118 65.5769 25.5836 65.12 24.88C64.9124 24.5676 64.6296 24.3122 64.2976 24.1375C63.9656 23.9628 63.5951 23.8743 63.22 23.88C62.6815 23.8799 62.1604 24.0713 61.75 24.42C61.3113 24.7785 61.0079 25.2759 60.89 25.83C60.8309 26.0453 60.7974 26.2668 60.79 26.49V28.13C60.7684 28.8211 61.0199 29.4929 61.49 30C61.7026 30.242 61.9663 30.4339 62.262 30.5619C62.5576 30.6899 62.878 30.7507 63.2 30.74C63.5785 30.7491 63.9531 30.6622 64.2888 30.4873C64.6246 30.3125 64.9105 30.0554 65.12 29.74C65.6072 29.0037 65.8487 28.132 65.81 27.25H65.77ZM79.31 27.17C79.3995 28.6302 78.911 30.067 77.95 31.17C77.5688 31.5839 77.1046 31.9128 76.5876 32.1351C76.0707 32.3574 75.5127 32.4681 74.95 32.46C74.3921 32.5029 73.8332 32.389 73.3367 32.131C72.8401 31.873 72.4256 31.4812 72.14 31V36.2H70V25.61C70 24.5567 69.9733 23.48 69.92 22.38H71.84L71.96 23.94C72.2911 23.4336 72.7359 23.0114 73.2588 22.707C73.7817 22.4027 74.3684 22.2244 74.9723 22.1866C75.5762 22.1487 76.1805 22.2522 76.7374 22.4889C77.2942 22.7256 77.7882 23.0889 78.18 23.55C78.9894 24.5779 79.4012 25.8631 79.34 27.17H79.31ZM77.08 27.25C77.114 26.4118 76.8869 25.5836 76.43 24.88C76.223 24.5669 75.9404 24.3111 75.6083 24.1363C75.2761 23.9615 74.9053 23.8733 74.53 23.88C73.9916 23.8808 73.4709 24.0721 73.06 24.42C72.6207 24.7779 72.3171 25.2756 72.2 25.83C72.1415 26.0455 72.108 26.2669 72.1 26.49V28.13C72.0768 28.8196 72.3245 29.4908 72.79 30C73.0031 30.2415 73.2668 30.433 73.5624 30.5609C73.858 30.6888 74.1781 30.75 74.5 30.74C74.8785 30.7491 75.2531 30.6622 75.5888 30.4873C75.9246 30.3125 76.2105 30.0554 76.42 29.74C76.9072 29.0037 77.1487 28.132 77.11 27.25H77.08ZM92 28.39C92.0173 28.9215 91.9179 29.4503 91.7088 29.9392C91.4998 30.4281 91.1862 30.8653 90.79 31.22C89.7459 32.0671 88.422 32.4918 87.08 32.41C85.8464 32.4683 84.6218 32.1734 83.55 31.56L84 29.74C84.9559 30.3068 86.0488 30.6008 87.16 30.59C87.8589 30.6268 88.5487 30.4181 89.11 30C89.3337 29.8231 89.5127 29.5961 89.6326 29.3372C89.7524 29.0784 89.8098 28.7951 89.8 28.51C89.8058 28.2501 89.7583 27.9917 89.6602 27.7509C89.5622 27.5101 89.4157 27.2919 89.23 27.11C88.6824 26.6341 88.0424 26.2766 87.35 26.06C84.9633 25.1667 83.77 23.8633 83.77 22.15C83.7613 21.6368 83.8671 21.1281 84.0799 20.661C84.2927 20.1939 84.607 19.7802 85 19.45C85.9503 18.6994 87.1406 18.3192 88.35 18.38C89.4207 18.3426 90.4845 18.5657 91.45 19.03L90.9 20.81C90.0938 20.3824 89.1925 20.1657 88.28 20.18C87.6272 20.142 86.9832 20.3448 86.47 20.75C86.3073 20.913 86.1813 21.1088 86.1002 21.3243C86.0192 21.5399 85.985 21.7702 86 22C85.9965 22.2551 86.0514 22.5076 86.1606 22.7381C86.2698 22.9687 86.4304 23.1712 86.63 23.33C87.2362 23.7848 87.9114 24.1393 88.63 24.38C89.5812 24.7235 90.4426 25.2773 91.15 26C91.7266 26.6598 92.0305 27.5143 92 28.39ZM99.23 24H96.82V28.77C96.82 29.9833 97.2433 30.59 98.09 30.59C98.4263 30.6006 98.7625 30.567 99.09 30.49L99.15 32.15C98.6014 32.3274 98.0263 32.4086 97.45 32.39C97.0797 32.4073 96.71 32.3458 96.3652 32.2096C96.0205 32.0735 95.7085 31.8657 95.45 31.6C94.8846 30.8559 94.6076 29.9324 94.67 29V24H93.24V22.38H94.67V20.58L96.82 19.93V22.38H99.23V24ZM110.07 27.2C110.122 28.5596 109.657 29.8885 108.77 30.92C108.316 31.4174 107.758 31.8094 107.136 32.0685C106.514 32.3276 105.843 32.4476 105.17 32.42C104.528 32.449 103.887 32.3369 103.292 32.0916C102.698 31.8463 102.165 31.4737 101.73 31C100.856 30.0008 100.395 28.7067 100.44 27.38C100.385 26.0103 100.857 24.6715 101.76 23.64C102.214 23.1522 102.768 22.7689 103.384 22.5168C104.001 22.2647 104.665 22.1498 105.33 22.18C105.98 22.1537 106.627 22.2689 107.228 22.5175C107.829 22.7661 108.369 23.1423 108.81 23.62C109.674 24.615 110.125 25.9031 110.07 27.22V27.2ZM107.81 27.25C107.832 26.437 107.627 25.634 107.22 24.93C107.032 24.5652 106.744 24.2613 106.39 24.0541C106.036 23.8469 105.63 23.7449 105.22 23.76C104.811 23.7485 104.406 23.852 104.053 24.0588C103.699 24.2657 103.411 24.5675 103.22 24.93C102.809 25.647 102.605 26.4639 102.63 27.29C102.608 28.1031 102.812 28.9063 103.22 29.61C103.411 29.9675 103.696 30.2664 104.044 30.4747C104.392 30.6831 104.79 30.7931 105.195 30.7931C105.6 30.7931 105.998 30.6831 106.346 30.4747C106.694 30.2664 106.979 29.9675 107.17 29.61C107.583 28.9009 107.791 28.0906 107.77 27.27L107.81 27.25ZM117.18 24.25C116.952 24.209 116.721 24.189 116.49 24.19C116.144 24.1737 115.8 24.2449 115.489 24.397C115.177 24.549 114.91 24.7771 114.71 25.06C114.328 25.6329 114.135 26.3116 114.16 27V32.16H112V25.48C112 24.4467 111.98 23.4167 111.94 22.39H113.84L113.92 24.27H114C114.179 23.6632 114.526 23.1191 115 22.7C115.456 22.3574 116.01 22.1714 116.58 22.17C116.763 22.1556 116.947 22.1556 117.13 22.17V24.3L117.18 24.25ZM126.95 26.78C126.956 27.1152 126.929 27.4501 126.87 27.78H120.32C120.311 28.2026 120.396 28.6219 120.569 29.0076C120.742 29.3933 120.998 29.7357 121.32 30.01C121.929 30.4873 122.687 30.7319 123.46 30.7C124.364 30.7133 125.263 30.5573 126.11 30.24L126.45 31.76C125.404 32.1887 124.28 32.3963 123.15 32.37C122.481 32.4095 121.811 32.308 121.184 32.072C120.557 31.8359 119.987 31.4707 119.51 31C119.066 30.5135 118.723 29.9442 118.5 29.3247C118.277 28.7052 118.178 28.0477 118.21 27.39C118.163 26.0508 118.596 24.7388 119.43 23.69C119.839 23.1752 120.364 22.7639 120.961 22.4894C121.559 22.2149 122.213 22.0849 122.87 22.11C123.497 22.0749 124.123 22.2018 124.687 22.4785C125.251 22.7552 125.734 23.1725 126.09 23.69C126.692 24.6053 126.996 25.6848 126.96 26.78H126.95ZM124.87 26.21C124.898 25.6209 124.752 25.0365 124.45 24.53C124.27 24.235 124.012 23.9946 123.706 23.8343C123.399 23.674 123.055 23.6 122.71 23.62C122.369 23.6136 122.032 23.6915 121.728 23.8467C121.425 24.002 121.164 24.2298 120.97 24.51C120.596 25.0035 120.371 25.5931 120.32 26.21H124.87Z" fill="white"/>
<path d="M48.1 14.94C47.5756 14.9428 47.0514 14.9161 46.53 14.86V8.27001C47.1421 8.17527 47.7606 8.12846 48.38 8.13001C50.89 8.13001 52.04 9.36001 52.04 11.37C52 13.69 50.67 14.94 48.1 14.94ZM48.47 8.94001C48.1787 8.93102 47.8873 8.95112 47.6 9.00001V14C47.8431 14.0157 48.0869 14.0157 48.33 14C48.6779 14.0313 49.0285 13.9852 49.3566 13.8652C49.6846 13.7451 49.9821 13.5541 50.2277 13.3056C50.4733 13.0572 50.6609 12.7575 50.7771 12.4281C50.8933 12.0986 50.9353 11.7476 50.9 11.4C50.9336 11.0739 50.8936 10.7445 50.7829 10.436C50.6722 10.1274 50.4937 9.8477 50.2605 9.61736C50.0272 9.38703 49.7453 9.21198 49.4354 9.10513C49.1255 8.99828 48.7956 8.96236 48.47 9.00001V8.94001ZM55.64 14.94C55.3188 14.9453 55 14.8832 54.7042 14.7578C54.4084 14.6324 54.1422 14.4464 53.9227 14.2118C53.7032 13.9772 53.5353 13.6993 53.4297 13.3958C53.3242 13.0924 53.2834 12.7702 53.31 12.45C53.2962 12.1288 53.3485 11.8083 53.4636 11.5081C53.5787 11.2079 53.7541 10.9346 53.9791 10.7049C54.2041 10.4753 54.4737 10.2943 54.7715 10.173C55.0692 10.0518 55.3886 9.99287 55.71 10C56.0233 9.99795 56.3337 10.0605 56.6217 10.1837C56.9098 10.307 57.1694 10.4882 57.3842 10.7163C57.5991 10.9443 57.7647 11.2141 57.8706 11.509C57.9766 11.8038 58.0206 12.1174 58 12.43C58.0277 12.7576 57.987 13.0875 57.8804 13.3985C57.7738 13.7095 57.6036 13.995 57.3807 14.2367C57.1578 14.4784 56.8871 14.6711 56.5857 14.8025C56.2842 14.9339 55.9588 15.0012 55.63 15L55.64 14.94ZM55.64 10.68C54.86 10.68 54.37 11.41 54.37 12.42C54.37 13.43 54.88 14.14 55.63 14.14C56.38 14.14 56.89 13.36 56.89 12.4C56.89 11.44 56.39 10.68 55.64 10.68ZM66.06 9.99001L64.55 14.82H63.55L63 12.78C62.8438 12.2669 62.7136 11.7462 62.61 11.22C62.5202 11.7492 62.3898 12.2708 62.22 12.78L61.55 14.88H60.55L59.13 10.05H60.23L60.78 12.35C60.9067 12.8967 61.0167 13.4133 61.11 13.9C61.19 13.49 61.32 12.99 61.51 12.36L62.2 10.05H63L63.66 12.31C63.82 12.86 63.95 13.39 64.05 13.9C64.1289 13.364 64.2391 12.8331 64.38 12.31L65 10.05H66.05L66.06 9.99001ZM71.62 14.82H70.58V12.11C70.58 11.26 70.25 10.83 69.58 10.83C69.2864 10.8481 69.0117 10.9809 68.8152 11.1998C68.6188 11.4188 68.5163 11.7062 68.53 12V14.87H67.46V11.43C67.46 11 67.46 10.54 67.46 10.05H68.4L68.45 10.8C68.6151 10.542 68.8454 10.3322 69.1175 10.1918C69.3897 10.0513 69.6941 9.98514 70 10C71 10 71.68 10.78 71.68 12V14.89L71.62 14.82ZM74.62 14.82H73.54V7.82001H74.61L74.62 14.82ZM78.54 14.93C78.2188 14.9353 77.9 14.8732 77.6042 14.7478C77.3084 14.6224 77.0422 14.4364 76.8227 14.2018C76.6032 13.9672 76.4353 13.6893 76.3297 13.3858C76.2242 13.0824 76.1834 12.7602 76.21 12.44C76.1976 12.1197 76.251 11.8002 76.3667 11.5012C76.4824 11.2022 76.6581 10.9301 76.8829 10.7015C77.1077 10.473 77.3769 10.2928 77.6739 10.1722C77.9709 10.0515 78.2895 9.99295 78.61 10C78.9312 9.99171 79.2505 10.0514 79.547 10.1751C79.8435 10.2989 80.1105 10.4839 80.3305 10.7181C80.5505 10.9522 80.7186 11.2303 80.8236 11.5339C80.9286 11.8375 80.9683 12.16 80.94 12.48C80.9608 12.807 80.9136 13.1348 80.8013 13.4426C80.689 13.7505 80.5141 14.0317 80.2876 14.2685C80.0611 14.5053 79.788 14.6926 79.4855 14.8185C79.183 14.9444 78.8576 15.0062 78.53 15L78.54 14.93ZM78.54 10.67C77.76 10.67 77.27 11.4 77.27 12.41C77.27 13.42 77.78 14.13 78.53 14.13C79.28 14.13 79.79 13.35 79.79 12.39C79.79 11.43 79.3 10.67 78.54 10.67ZM85.14 14.82L85.06 14.26C84.8985 14.4794 84.6853 14.6554 84.4392 14.7723C84.1932 14.8892 83.9221 14.9434 83.65 14.93C83.4578 14.941 83.2655 14.9123 83.0849 14.8456C82.9043 14.779 82.7395 14.6758 82.6006 14.5425C82.4617 14.4093 82.3518 14.2488 82.2777 14.0711C82.2036 13.8935 82.1669 13.7025 82.17 13.51C82.17 12.32 83.17 11.7 84.99 11.7V11.61C84.99 10.97 84.65 10.61 83.99 10.61C83.5437 10.6029 83.1052 10.7282 82.73 10.97L82.51 10.26C83.0287 10.0217 83.6033 9.93168 84.17 10C85.43 10 86.07 10.67 86.07 12V13.78C86.063 14.1646 86.0864 14.5491 86.14 14.93H85.14V14.82ZM85 12.48C83.81 12.48 83.21 12.77 83.21 13.48C83.1976 13.5811 83.208 13.6836 83.2404 13.7801C83.2729 13.8766 83.3267 13.9646 83.3977 14.0375C83.4687 14.1105 83.5552 14.1665 83.6508 14.2016C83.7464 14.2366 83.8487 14.2498 83.95 14.24C84.0855 14.2468 84.2209 14.2259 84.3481 14.1787C84.4752 14.1315 84.5914 14.0589 84.6897 13.9654C84.7879 13.8719 84.866 13.7593 84.9194 13.6346C84.9727 13.5099 85.0002 13.3756 85 13.24V12.48ZM91.26 14.89L91.21 14.11C91.0674 14.394 90.8445 14.6299 90.5688 14.7881C90.2932 14.9464 89.9772 15.0201 89.66 15C89.3641 14.9754 89.0762 14.8911 88.8137 14.7522C88.5512 14.6134 88.3195 14.4228 88.1326 14.192C87.9458 13.9612 87.8075 13.695 87.7263 13.4094C87.6451 13.1237 87.6225 12.8246 87.66 12.53C87.66 11.02 88.55 9.95001 89.78 9.95001C90.0455 9.9243 90.3129 9.97231 90.5528 10.0888C90.7928 10.2052 90.9959 10.3856 91.14 10.61V7.83001H92.2V13.58C92.2 14.05 92.2 14.48 92.2 14.88H91.2L91.26 14.89ZM91.13 12C91.1353 11.8463 91.1103 11.6931 91.0564 11.5491C91.0025 11.4051 90.9207 11.2732 90.8158 11.1608C90.7109 11.0484 90.5848 10.9578 90.4448 10.8942C90.3048 10.8306 90.1537 10.7952 90 10.79C89.2 10.79 88.72 11.5 88.72 12.49C88.72 13.48 89.23 14.13 89.98 14.13C90.1399 14.1224 90.2966 14.0831 90.4412 14.0144C90.5857 13.9458 90.7152 13.8491 90.8222 13.7301C90.9291 13.611 91.0114 13.4719 91.0643 13.3209C91.1171 13.1698 91.1394 13.0098 91.13 12.85V12ZM99 15C98.6788 15.0053 98.36 14.9432 98.0642 14.8178C97.7684 14.6924 97.5022 14.5064 97.2827 14.2718C97.0632 14.0372 96.8953 13.7593 96.7897 13.4558C96.6842 13.1524 96.6434 12.8302 96.67 12.51C96.6474 12.1814 96.6941 11.8516 96.8071 11.5422C96.9201 11.2328 97.0969 10.9506 97.326 10.7139C97.5552 10.4772 97.8315 10.2913 98.1371 10.1683C98.4427 10.0454 98.7708 9.98801 99.1 10C99.4212 9.99171 99.7405 10.0514 100.037 10.1751C100.334 10.2989 100.601 10.4839 100.821 10.7181C101.041 10.9522 101.209 11.2303 101.314 11.5339C101.419 11.8375 101.458 12.16 101.43 12.48C101.451 12.8087 101.403 13.1382 101.29 13.4475C101.176 13.7567 100.999 14.0389 100.771 14.276C100.542 14.5131 100.267 14.7 99.9617 14.8246C99.6568 14.9493 99.3293 15.009 99 15ZM99 10.74C98.23 10.74 97.73 11.47 97.73 12.48C97.73 13.49 98.29 14.2 99 14.2C99.71 14.2 100.26 13.42 100.26 12.46C100.26 11.5 99.77 10.74 99.01 10.74H99ZM107.14 14.89H106.07V12.11C106.07 11.26 105.74 10.83 105.07 10.83C104.786 10.8604 104.525 10.9988 104.341 11.2167C104.156 11.4346 104.063 11.7151 104.08 12V14.87H103V11.43C103 11 103 10.54 103 10.05H103.94L103.99 10.8C104.147 10.5358 104.372 10.3179 104.64 10.1686C104.909 10.0193 105.213 9.94389 105.52 9.95001C106.52 9.95001 107.2 10.73 107.2 11.95L107.14 14.89ZM114.37 10.89H113.19V13.2C113.19 13.8 113.4 14.1 113.82 14.1C113.981 14.1017 114.142 14.0849 114.3 14.05V14.87C114.033 14.9588 113.752 14.9995 113.47 14.99C112.62 14.99 112.12 14.52 112.12 13.3V10.86H111.41V10.05H112.12V9.17001L113.17 8.85001V10H114.35V10.81L114.37 10.89ZM120.06 14.89H119V12.13C119 11.27 118.67 10.83 118 10.83C117.856 10.8359 117.714 10.8716 117.584 10.9347C117.454 10.9978 117.339 11.0871 117.245 11.1969C117.151 11.3067 117.081 11.4347 117.039 11.5729C116.997 11.7111 116.983 11.8565 117 12V14.91H115.93V7.91001H117V10.81C117.149 10.5611 117.363 10.3567 117.618 10.2178C117.872 10.0789 118.16 10.0106 118.45 10.02C119.45 10.02 120.1 10.81 120.1 12.08V14.95L120.06 14.89ZM125.88 12.73H122.66C122.653 12.9274 122.689 13.1238 122.764 13.3064C122.84 13.4889 122.953 13.6533 123.097 13.7886C123.241 13.9239 123.412 14.027 123.598 14.091C123.785 14.1551 123.983 14.1786 124.18 14.16C124.624 14.1634 125.064 14.0855 125.48 13.93L125.65 14.68C125.137 14.8913 124.585 14.9935 124.03 14.98C123.704 15.0062 123.377 14.9608 123.07 14.847C122.764 14.7332 122.486 14.5538 122.257 14.3213C122.027 14.0888 121.851 13.8089 121.741 13.5012C121.631 13.1934 121.59 12.8654 121.62 12.54C121.586 12.2088 121.623 11.8742 121.727 11.5582C121.832 11.2422 122.002 10.9518 122.227 10.7063C122.452 10.4607 122.726 10.2655 123.031 10.1334C123.337 10.0014 123.667 9.93546 124 9.94001C124.29 9.93672 124.577 9.99651 124.842 10.1152C125.106 10.2339 125.342 10.4087 125.532 10.6275C125.722 10.8463 125.863 11.1038 125.943 11.3823C126.024 11.6607 126.044 11.9534 126 12.24C126.019 12.4028 126.019 12.5672 126 12.73H125.88ZM125 12C125 11.25 124.62 10.73 123.94 10.73C123.61 10.7404 123.297 10.8788 123.068 11.1158C122.838 11.3529 122.71 11.67 122.71 12H125Z" fill="white"/>
</svg>
