<svg width="142" height="42" viewBox="0 0 142 42" fill="none" xmlns="http://www.w3.org/2000/svg">
<path d="M140.5 37C140.5 38.0609 140.079 39.0783 139.328 39.8284C138.578 40.5786 137.561 41 136.5 41H5C3.93913 41 2.92172 40.5786 2.17157 39.8284C1.42143 39.0783 1 38.0609 1 37V5C1 3.93913 1.42143 2.92172 2.17157 2.17157C2.92172 1.42143 3.93913 1 5 1H136.48C137.541 1 138.558 1.42143 139.308 2.17157C140.059 2.92172 140.48 3.93913 140.48 5V37H140.5Z" fill="#B41A59"/>
<path opacity="0.18" d="M136.48 1C137.541 1 138.558 1.42143 139.308 2.17157C140.059 2.92172 140.48 3.93913 140.48 5V37C140.48 38.0609 140.059 39.0783 139.308 39.8284C138.558 40.5786 137.541 41 136.48 41H5C3.93913 41 2.92172 40.5786 2.17157 39.8284C1.42143 39.0783 1 38.0609 1 37V5C1 3.93913 1.42143 2.92172 2.17157 2.17157C2.92172 1.42143 3.93913 1 5 1H136.48ZM136.48 0H5C3.67392 0 2.40215 0.526784 1.46447 1.46447C0.526784 2.40215 0 3.67392 0 5L0 37C0 38.3261 0.526784 39.5979 1.46447 40.5355C2.40215 41.4732 3.67392 42 5 42H136.48C137.806 42 139.078 41.4732 140.016 40.5355C140.953 39.5979 141.48 38.3261 141.48 37V5C141.48 3.67392 140.953 2.40215 140.016 1.46447C139.078 0.526784 137.806 0 136.48 0V0Z" fill="white"/>
<path d="M50 12.73C50.0333 13.4656 49.7745 14.1845 49.28 14.73C48.8372 15.1803 48.2699 15.488 47.6511 15.6137C47.0322 15.7395 46.3898 15.6775 45.8064 15.4358C45.223 15.194 44.725 14.7835 44.3765 14.2569C44.0279 13.7302 43.8446 13.1115 43.85 12.48C43.8473 12.063 43.9275 11.6496 44.0859 11.2638C44.2443 10.878 44.4777 10.5274 44.7726 10.2325C45.0674 9.93766 45.418 9.70426 45.8038 9.54589C46.1896 9.38752 46.603 9.30734 47.02 9.31C47.4487 9.31533 47.87 9.42153 48.25 9.62C48.6152 9.77398 48.9328 10.0225 49.17 10.34L48.66 10.85C48.4663 10.6051 48.2155 10.4114 47.9296 10.2858C47.6437 10.1603 47.3314 10.1068 47.02 10.13C46.7095 10.1143 46.3996 10.1712 46.1149 10.2962C45.8302 10.4211 45.5786 10.6108 45.38 10.85C45.1334 11.0645 44.9401 11.3333 44.8151 11.6352C44.6902 11.9372 44.6371 12.264 44.66 12.59C44.6371 12.916 44.6902 13.2428 44.8151 13.5448C44.9401 13.8467 45.1334 14.1155 45.38 14.33C45.8261 14.7538 46.4061 15.0084 47.02 15.05C47.3448 15.0628 47.6686 15.0051 47.9689 14.8808C48.2693 14.7565 48.5392 14.5686 48.76 14.33C48.9234 14.1698 49.0528 13.9784 49.1404 13.767C49.2281 13.5557 49.2721 13.3288 49.27 13.1H47.05V12.28H50.05V12.69L50 12.73ZM54.71 10.17H52V12.12H54.56V12.84H52V14.79H54.76V15.61H51.15V9.45H54.73L54.71 10.17ZM58.09 15.6H57.27V10.17H55.55V9.45H59.85V10.17H58.11L58.09 15.6ZM62.8 15.6V9.45H63.62V15.6H62.8ZM67.1 15.6H66.3V10.17H64.56V9.45H68.76V10.17H67V15.6H67.1ZM76.83 14.78C76.3872 15.2303 75.8199 15.538 75.2011 15.6637C74.5822 15.7895 73.9398 15.7275 73.3564 15.4858C72.773 15.244 72.275 14.8335 71.9265 14.3069C71.5779 13.7802 71.3946 13.1615 71.4 12.53C71.4 11.6879 71.7345 10.8804 72.3299 10.2849C72.9254 9.68951 73.7329 9.355 74.575 9.355C75.4171 9.355 76.2246 9.68951 76.8201 10.2849C77.4155 10.8804 77.75 11.6879 77.75 12.53C77.7647 12.947 77.6923 13.3625 77.5373 13.7499C77.3823 14.1373 77.1482 14.4882 76.85 14.78H76.83ZM73 14.27C73.4345 14.7109 74.0214 14.9686 74.64 14.99C74.9505 15.0057 75.2604 14.9488 75.5451 14.8238C75.8298 14.6989 76.0814 14.5092 76.28 14.27C76.7404 13.8078 76.9992 13.1823 77 12.53C77.0229 12.204 76.9698 11.8772 76.8449 11.5752C76.7199 11.2733 76.5266 11.0045 76.28 10.79C75.8455 10.3491 75.2586 10.0914 74.64 10.07C74.3295 10.0543 74.0196 10.1112 73.7349 10.2362C73.4502 10.3611 73.1986 10.5508 73 10.79C72.5397 11.2522 72.2808 11.8777 72.28 12.53C72.2571 12.856 72.3102 13.1828 72.4351 13.4848C72.5601 13.7867 72.7534 14.0555 73 14.27ZM78.9 15.6V9.45H79.82L82.82 14.26V9.45H83.64V15.6H82.82L79.65 10.6V15.6H78.9Z" fill="white"/>
<path d="M71.22 23.28C70.6388 23.2677 70.0612 23.3732 69.5218 23.5899C68.9824 23.8067 68.4925 24.1304 68.0814 24.5414C67.6704 24.9525 67.3467 25.4424 67.1299 25.9818C66.9132 26.5212 66.8077 27.0988 66.82 27.68C66.816 28.2589 66.9271 28.8329 67.1468 29.3685C67.3665 29.9042 67.6905 30.3908 68.0998 30.8002C68.5092 31.2095 68.9959 31.5335 69.5315 31.7532C70.0671 31.9729 70.6411 32.084 71.22 32.08C71.8012 32.0923 72.3788 31.9869 72.9182 31.7701C73.4576 31.5533 73.9475 31.2296 74.3586 30.8186C74.7696 30.4076 75.0933 29.9176 75.3101 29.3782C75.5268 28.8388 75.6323 28.2612 75.62 27.68C75.641 27.0965 75.5415 26.515 75.3278 25.9717C75.1141 25.4284 74.7908 24.9349 74.378 24.5221C73.9651 24.1092 73.4716 23.7859 72.9283 23.5722C72.385 23.3585 71.8035 23.259 71.22 23.28ZM71.22 30.28C70.5543 30.2222 69.9345 29.917 69.483 29.4245C69.0314 28.9321 68.7809 28.2882 68.7809 27.62C68.7809 26.9518 69.0314 26.308 69.483 25.8155C69.9345 25.323 70.5543 25.0178 71.22 24.96C71.5597 24.9619 71.8954 25.0335 72.2063 25.1704C72.5172 25.3074 72.7966 25.5067 73.0273 25.7561C73.2579 26.0055 73.4349 26.2997 73.5472 26.6203C73.6595 26.9409 73.7047 27.2812 73.68 27.62C73.6907 27.9536 73.6355 28.286 73.5176 28.5983C73.3997 28.9106 73.2215 29.1965 72.993 29.4399C72.7645 29.6832 72.4904 29.8791 72.1861 30.0164C71.8819 30.1537 71.5536 30.2297 71.22 30.24V30.28ZM61.7 23.28C61.1188 23.2677 60.5412 23.3732 60.0018 23.5899C59.4624 23.8067 58.9725 24.1304 58.5614 24.5414C58.1504 24.9525 57.8267 25.4424 57.6099 25.9818C57.3932 26.5212 57.2877 27.0988 57.3 27.68C57.296 28.2589 57.4071 28.8329 57.6268 29.3685C57.8465 29.9042 58.1705 30.3908 58.5798 30.8002C58.9892 31.2095 59.4759 31.5335 60.0115 31.7532C60.5471 31.9729 61.1211 32.084 61.7 32.08C62.2812 32.0923 62.8588 31.9869 63.3982 31.7701C63.9376 31.5533 64.4275 31.2296 64.8386 30.8186C65.2496 30.4076 65.5733 29.9176 65.7901 29.3782C66.0068 28.8388 66.1123 28.2612 66.1 27.68C66.1211 27.0957 66.0213 26.5133 65.807 25.9693C65.5927 25.4252 65.2685 24.9313 64.8546 24.5183C64.4406 24.1053 63.9459 23.7822 63.4014 23.5691C62.8569 23.356 62.2743 23.2576 61.69 23.28H61.7ZM61.7 30.28C61.0343 30.2222 60.4145 29.917 59.963 29.4245C59.5114 28.9321 59.2609 28.2882 59.2609 27.62C59.2609 26.9518 59.5114 26.308 59.963 25.8155C60.4145 25.323 61.0343 25.0178 61.7 24.96C62.0397 24.9619 62.3754 25.0335 62.6863 25.1704C62.9972 25.3074 63.2766 25.5067 63.5073 25.7561C63.7379 26.0055 63.9149 26.2997 64.0272 26.6203C64.1394 26.9409 64.1847 27.2812 64.16 27.62C64.1707 27.9544 64.1151 28.2877 63.9966 28.6006C63.8781 28.9135 63.699 29.1999 63.4695 29.4433C63.24 29.6868 62.9646 29.8825 62.6592 30.0192C62.3538 30.1559 62.0245 30.231 61.69 30.24L61.7 30.28ZM50.33 24.61V26.45H54.73C54.6722 27.3239 54.3196 28.1524 53.73 28.8C53.2889 29.2429 52.7608 29.5897 52.1791 29.8186C51.5974 30.0475 50.9747 30.1535 50.35 30.13C49.7083 30.1357 49.072 30.0118 48.4793 29.7658C47.8866 29.5197 47.3496 29.1566 46.9005 28.6982C46.4514 28.2398 46.0995 27.6955 45.8657 27.0978C45.6319 26.5002 45.5211 25.8615 45.54 25.22C45.5294 24.5807 45.6458 23.9457 45.8826 23.3517C46.1193 22.7578 46.4716 22.2167 46.9191 21.76C47.3665 21.3032 47.9002 20.9399 48.4891 20.691C49.0781 20.4421 49.7106 20.3126 50.35 20.31C51.6021 20.3216 52.8057 20.7953 53.73 21.64L55 20.31C53.7636 19.1165 52.1083 18.4559 50.39 18.47C48.5917 18.4826 46.8692 19.1958 45.5883 20.458C44.3074 21.7202 43.569 23.4321 43.53 25.23C43.5666 27.0366 44.3094 28.7569 45.5992 30.0224C46.8889 31.2878 48.6231 31.9978 50.43 32C51.3149 32.0423 52.198 31.8845 53.0135 31.5382C53.829 31.1919 54.5559 30.6661 55.14 30C56.2217 28.8324 56.8094 27.2914 56.78 25.7C56.8028 25.3205 56.7691 24.9396 56.68 24.57H50.33V24.61ZM96.81 26C96.5546 25.2156 96.0629 24.5294 95.4024 24.0353C94.7418 23.5412 93.9446 23.2634 93.12 23.24C92.5563 23.2414 91.9988 23.3586 91.4821 23.5841C90.9655 23.8097 90.5006 24.1388 90.1162 24.5513C89.7319 24.9637 89.4363 25.4507 89.2478 25.9819C89.0592 26.5132 88.9817 27.0776 89.02 27.64C89.0039 28.2138 89.1034 28.7849 89.3125 29.3194C89.5216 29.854 89.8361 30.341 90.2373 30.7515C90.6385 31.162 91.1181 31.4876 91.6477 31.709C92.1773 31.9303 92.746 32.0429 93.32 32.04C94.0332 32.0457 94.7361 31.8696 95.3624 31.5285C95.9888 31.1873 96.5179 30.6923 96.9 30.09L95.47 29.09C95.2494 29.4641 94.935 29.7743 94.558 29.99C94.181 30.2057 93.7543 30.3194 93.32 30.32C92.8717 30.3421 92.4272 30.2278 92.0451 29.9922C91.6631 29.7565 91.3614 29.4106 91.18 29L97 26.55L96.8 26.04L96.81 26ZM90.87 27.43C90.8493 26.7972 91.0704 26.1803 91.4884 25.7047C91.9063 25.2292 92.4898 24.9307 93.12 24.87C93.4514 24.8584 93.7796 24.9381 94.0688 25.1003C94.3581 25.2626 94.5971 25.5011 94.76 25.79L90.87 27.43ZM86.06 31.63H88V18.87H86.06V31.63ZM83 24.2C82.3782 23.5713 81.5342 23.2121 80.65 23.2C79.5181 23.2515 78.4496 23.7377 77.6672 24.5574C76.8848 25.377 76.4488 26.4669 76.45 27.6C76.4421 28.1585 76.5446 28.713 76.7516 29.2318C76.9586 29.7505 77.2661 30.2233 77.6564 30.6229C78.0467 31.0224 78.512 31.3409 79.0258 31.5601C79.5395 31.7793 80.0915 31.8948 80.65 31.9C81.075 31.9059 81.4963 31.8195 81.8847 31.6469C82.2732 31.4743 82.6195 31.2194 82.9 30.9H83V31.51C83.0487 32.0728 82.8913 32.6341 82.5571 33.0895C82.2228 33.5449 81.7345 33.8634 81.1831 33.9856C80.6316 34.1079 80.0544 34.0257 79.559 33.7542C79.0637 33.4828 78.6837 33.0406 78.49 32.51L76.85 33.23C77.1757 33.9913 77.7182 34.6399 78.4099 35.0952C79.1016 35.5504 79.912 35.792 80.74 35.79C82.99 35.79 84.84 34.46 84.84 31.28V23.48H83V24.2ZM80.75 30.2C80.0843 30.1422 79.4645 29.837 79.013 29.3445C78.5614 28.8521 78.3109 28.2082 78.3109 27.54C78.3109 26.8718 78.5614 26.228 79.013 25.7355C79.4645 25.243 80.0843 24.9378 80.75 24.88C81.0812 24.8937 81.4063 24.9742 81.7056 25.1167C82.005 25.2592 82.2724 25.4607 82.4919 25.7092C82.7114 25.9576 82.8784 26.2479 82.9829 26.5625C83.0874 26.8771 83.1272 27.2096 83.1 27.54C83.133 27.8744 83.0971 28.212 82.9947 28.532C82.8922 28.852 82.7252 29.1476 82.5041 29.4005C82.283 29.6535 82.0123 29.8585 81.7089 30.0029C81.4055 30.1473 81.0758 30.228 80.74 30.24L80.75 30.2ZM105.75 18.83H101.14V31.63H103.09V26.86H105.75C106.811 26.86 107.828 26.4386 108.578 25.6884C109.329 24.9383 109.75 23.9209 109.75 22.86C109.75 21.7991 109.329 20.7817 108.578 20.0316C107.828 19.2814 106.811 18.86 105.75 18.86V18.83ZM105.85 24.97H103.09V20.57H105.85C106.43 20.5694 106.987 20.7927 107.407 21.1933C107.826 21.5938 108.074 22.1408 108.1 22.72C108.085 23.3199 107.84 23.8911 107.415 24.3154C106.991 24.7397 106.42 24.9848 105.82 25L105.85 24.97ZM117.62 23.13C116.925 23.0745 116.23 23.2312 115.627 23.5794C115.023 23.9276 114.54 24.4509 114.24 25.08L115.98 25.8C116.15 25.4951 116.405 25.2461 116.714 25.0828C117.023 24.9196 117.372 24.8491 117.72 24.88C118.198 24.8551 118.668 25.0094 119.038 25.3127C119.408 25.6161 119.651 26.0466 119.72 26.52V26.62C119.123 26.2888 118.453 26.1134 117.77 26.11C115.93 26.11 114.08 27.11 114.08 28.98C114.097 29.3776 114.192 29.768 114.361 30.1283C114.53 30.4887 114.769 30.8118 115.064 31.0789C115.359 31.346 115.704 31.5518 116.079 31.6841C116.455 31.8165 116.853 31.8729 117.25 31.85C117.73 31.8664 118.207 31.7625 118.636 31.5476C119.066 31.3328 119.435 31.0139 119.71 30.62H119.81V31.62H121.65V26.76C121.576 25.7437 121.103 24.7977 120.336 24.1274C119.568 23.4572 118.567 23.1167 117.55 23.18L117.62 23.13ZM117.42 30.19C116.81 30.19 115.88 29.88 115.88 29.06C115.88 28.06 117.01 27.73 117.88 27.73C118.483 27.7337 119.078 27.8738 119.62 28.14C119.555 28.6965 119.296 29.2123 118.888 29.5964C118.48 29.9806 117.949 30.2085 117.39 30.24L117.42 30.19ZM128.17 23.43L126 29H125.9L123.65 23.47H121.65L125 31.26L123 35.56H125L130.22 23.48H128.22L128.17 23.43ZM110.97 31.62H112.92V18.87H110.97V31.62Z" fill="white"/>
<path d="M15.28 8.57001C14.9645 8.97623 14.8177 9.48835 14.87 10V32.63C14.8454 33.1552 15.0286 33.6689 15.38 34.06L15.48 34.16L28.18 21.46V21.26L15.28 8.57001Z" fill="url(#paint0_linear)"/>
<path d="M32.28 25.77L28.08 21.57V21.26L32.28 17.06L32.38 17.16L37.38 20.03C38.81 20.85 38.81 22.18 37.38 23.03L32.28 25.77Z" fill="url(#paint1_linear)"/>
<path d="M32.38 25.67L28.08 21.37L15.28 34.17C15.79 34.68 16.51 34.68 17.43 34.27L32.38 25.67Z" fill="url(#paint2_linear)"/>
<path d="M32.38 17.07L17.43 8.56999C17.1182 8.32854 16.7306 8.206 16.3366 8.22433C15.9426 8.24265 15.5681 8.40064 15.28 8.66999L28.08 21.37L32.38 17.07Z" fill="url(#paint3_linear)"/>
<defs>
<linearGradient id="paint0_linear" x1="21.53" y1="8.49001" x2="21.53" y2="33.97" gradientUnits="userSpaceOnUse">
<stop stop-color="#2A76A6"/>
<stop offset="0.29" stop-color="#498CAC"/>
<stop offset="0.77" stop-color="#77B6B4"/>
<stop offset="1" stop-color="#84C7B6"/>
</linearGradient>
<linearGradient id="paint1_linear" x1="34.71" y1="18.29" x2="31.6" y2="25.32" gradientUnits="userSpaceOnUse">
<stop stop-color="#E98475"/>
<stop offset="0.12" stop-color="#EB8C77"/>
<stop offset="0.71" stop-color="#F4B376"/>
<stop offset="1" stop-color="#F5C474"/>
</linearGradient>
<linearGradient id="paint2_linear" x1="30.08" y1="23.64" x2="16.1" y2="34.94" gradientUnits="userSpaceOnUse">
<stop stop-color="#DE433D"/>
<stop offset="0.17" stop-color="#CD4450"/>
<stop offset="0.57" stop-color="#A74775"/>
<stop offset="0.86" stop-color="#8E498B"/>
<stop offset="1" stop-color="#824793"/>
</linearGradient>
<linearGradient id="paint3_linear" x1="17.09" y1="9.17999" x2="30.47" y2="19.4" gradientUnits="userSpaceOnUse">
<stop stop-color="#55B8A5"/>
<stop offset="1" stop-color="#D8E198"/>
</linearGradient>
</defs>
</svg>
