<svg width="60" height="45" viewBox="0 0 60 45" fill="none" xmlns="http://www.w3.org/2000/svg">
<path d="M36.4444 0.148132V13.7778H23.4074V0.148132H0V44.7407H60V0.148132H36.4444ZM56.7407 41.1852H44.1481V28.5926H56.7407V41.1852Z" fill="#BF125D"/>
<path d="M55.259 30.0741H45.6294V39.7038H55.259V30.0741Z" fill="#DF89AE"/>
<path d="M49.1854 38.2222H48.4446C48.2965 38.2222 48.1483 38.0741 48.1483 37.9259V33.6296C48.1483 33.4815 48.0002 33.3333 47.852 33.3333H47.7039C47.5557 33.3333 47.4076 33.1852 47.5558 32.8889L48.5928 31.4074C48.7409 31.2593 48.8891 31.2593 49.0372 31.4074L50.0743 32.8889C50.2224 33.0371 50.0743 33.3333 49.9261 33.3333H49.778C49.6298 33.3333 49.4817 33.4815 49.4817 33.6296V37.9259C49.3335 38.0741 49.3335 38.2222 49.1854 38.2222Z" fill="#BF125D"/>
<path d="M52.2957 38.2223H51.555C51.4068 38.2223 51.2587 38.0741 51.2587 37.926V33.6297C51.2587 33.4815 51.1106 33.3334 50.9624 33.3334H50.8142C50.6661 33.3334 50.518 33.1852 50.6661 32.8889L51.7031 31.4074C51.8513 31.2593 51.9994 31.2593 52.1476 31.4074L53.1846 32.8889C53.3328 33.0371 53.1846 33.3334 53.0365 33.3334H52.8883C52.7402 33.3334 52.592 33.4815 52.592 33.6297V37.926C52.592 38.0741 52.4439 38.2223 52.2957 38.2223Z" fill="#BF125D"/>
<path d="M34.9637 0H24.8896V12.1481H34.9637V0Z" fill="#DF89AE"/>
</svg>
