<svg width="59" height="62" viewBox="0 0 59 62" fill="none" xmlns="http://www.w3.org/2000/svg">
<path d="M58.1998 15.9V19.3C58.1998 20.7 57.0998 21.8 55.6998 21.8H2.7998C1.3998 21.8 0.299805 20.7 0.299805 19.3V15.9C0.299805 14.5 1.3998 13.4 2.7998 13.4H55.6998C57.0998 13.5 58.1998 14.6 58.1998 15.9Z" fill="#DF89AE"/>
<path d="M9.10001 37.6L8.5 34.7L19.7 37.4C20 37.1 20.3 36.9 20.7 36.7V24.8H7C5.6 24.8 4.5 25.9 4.5 27.3V37.7H9.10001V37.6Z" fill="#DF89AE"/>
<path d="M23.5996 36.4C24.0996 36.6 24.5996 36.9 24.9996 37.3L35.5996 34.5L35.1996 37.6H54.0996V27.2C54.0996 25.8 52.9996 24.7 51.5996 24.7H23.5996V36.4Z" fill="#BF125D"/>
<path d="M20.7 46.1L16.1 58.8H13.4L20 42.5C19.6 42.1 19.2 41.7 19 41.2L10.5 44.5L9.7 40.5H4.5V59.2C4.5 60.6 5.6 61.7 7 61.7H20.7V46.1Z" fill="#DF89AE"/>
<path d="M34.7996 40.5L34.2996 44.5L25.5996 41.2C25.2996 41.8 24.8996 42.3 24.3996 42.7L30.2996 58.5H27.9996L23.5996 45.7V61.6H51.5996C52.9996 61.6 54.0996 60.5 54.0996 59.1V40.4H34.7996V40.5Z" fill="#BF125D"/>
<path d="M31.2998 13.5C30.5998 13.5 30.1998 13.5 29.9998 13.5L28.2998 13.4L28.6998 11.7C28.8998 10.8 30.8998 3.1 35.4998 0.700002C37.0998 -0.0999984 38.7998 -0.199995 40.5998 0.500005C42.6998 1.3 44.2998 3.2 44.5998 5.4C44.8998 7.2 44.3998 8.8 43.1998 10C40.2998 13.2 34.0998 13.5 31.2998 13.5ZM38.1998 3C37.6998 3 37.2998 3.1 36.7998 3.4C34.5998 4.6 32.8998 8.2 31.9998 10.7C34.8998 10.6 39.2998 10.1 40.9998 8.2C41.5998 7.6 41.7998 6.9 41.5998 5.9C41.3998 4.7 40.5998 3.7 39.3998 3.2C38.9998 3 38.5998 3 38.1998 3Z" fill="#DF89AE"/>
<path d="M27.2999 13.5C24.4999 13.5 18.2999 13.1 15.4999 10.1C14.2999 8.80001 13.8999 7.2 14.0999 5.5C14.3999 3.3 15.9999 1.40001 18.0999 0.600011C19.7999 -0.0999891 21.5999 7.7486e-06 23.1999 0.800008C27.6999 3.20001 29.7999 10.9 29.9999 11.8L30.3999 13.5L28.6999 13.6C28.4999 13.5 27.9999 13.5 27.2999 13.5ZM20.4999 3C20.0999 3 19.6999 3.10001 19.1999 3.30001C17.9999 3.80001 17.1999 4.8 16.9999 6C16.8999 6.9 17.0999 7.70001 17.5999 8.30001C19.2999 10.2 23.6999 10.7 26.5999 10.8C25.6999 8.30001 24.0999 4.7 21.7999 3.5C21.3999 3.1 20.9999 3 20.4999 3Z" fill="#DF89AE"/>
</svg>
