<svg width="59" height="36" viewBox="0 0 59 36" fill="none" xmlns="http://www.w3.org/2000/svg">
<path d="M39.0002 8.59998V14.6C39.0002 15.8 38.0002 16.8 36.8002 16.8H20.0002C18.8002 16.8 17.8002 17.8 17.8002 19V20.5C17.8002 22.2 15.8002 23.3 14.4002 22.3L1.6002 13.5C0.400195 12.6 0.400195 10.8 1.6002 9.89997L14.4002 1.09998C15.8002 0.0999822 17.8002 1.09997 17.8002 2.89997V4.39997C17.8002 5.59997 18.8002 6.59998 20.0002 6.59998H36.8002C38.0002 6.49998 39.0002 7.39998 39.0002 8.59998Z" fill="#BF125D"/>
<path d="M20.4004 27.6V21.6C20.4004 20.4 21.4004 19.4 22.6004 19.4H39.4004C40.6004 19.4 41.6004 18.4 41.6004 17.2V15.7C41.6004 14 43.6004 12.9 45.0004 13.9L57.8004 22.7C59.0004 23.6 59.0004 25.4 57.8004 26.3L45.0004 35.1C43.6004 36.1 41.6004 35.1 41.6004 33.3V31.8C41.6004 30.6 40.6004 29.6 39.4004 29.6H22.6004C21.4004 29.8 20.4004 28.8 20.4004 27.6Z" fill="#DF89AE"/>
</svg>
