<svg width="59" height="62" viewBox="0 0 59 62" fill="none" xmlns="http://www.w3.org/2000/svg">
<path d="M55.6002 15.1H2.7002C1.3002 15.1 0.200195 16.2 0.200195 17.6V59.5C0.200195 60.9 1.3002 62 2.7002 62H55.6002C57.0002 62 58.1002 60.9 58.1002 59.5V17.6C58.1002 16.3 57.0002 15.1 55.6002 15.1ZM43.1002 45.5C39.0002 45.5 35.7002 42.2 35.7002 38.1C35.7002 34 39.0002 30.7 43.1002 30.7C47.2002 30.7 50.5002 34 50.5002 38.1C50.5002 42.2 47.2002 45.5 43.1002 45.5Z" fill="#BF125D"/>
<path d="M0.200195 12.3L47.5002 12.5C48.9002 12.5 50.0002 11.4 50.0002 10V3.2C50.0002 1.7 48.6002 0.500002 47.1002 0.800002L3.1002 8.89999C1.4002 9.19999 0.200195 10.6 0.200195 12.3Z" fill="#DF89AE"/>
</svg>
